<?xml version="1.0" encoding="utf-8"?>
<!-- Generator: Adobe Illustrator 16.0.0, SVG Export Plug-In . SVG Version: 6.00 Build 0)  -->
<!DOCTYPE svg PUBLIC "-//W3C//DTD SVG 1.1//EN" "http://www.w3.org/Graphics/SVG/1.1/DTD/svg11.dtd">
<svg version="1.1" id="Layer_1" xmlns="http://www.w3.org/2000/svg" xmlns:xlink="http://www.w3.org/1999/xlink" x="0px" y="0px"
	 width="245.313px" height="173.968px" viewBox="0 0 245.313 173.968" enable-background="new 0 0 245.313 173.968"
	 xml:space="preserve">
<g>
	<g>
		<polygon fill="#F15B56" points="0.01,0 0.01,136.18 81.718,136.18 81.718,27.233 163.426,27.233 163.426,108.942 108.954,108.942 
			81.718,136.18 245.135,136.18 245.135,0 		"/>
	</g>
	<g>
		<polygon fill="#F15B56" points="54.496,0 54.496,27.235 81.732,27.235 108.968,27.235 108.968,0 		"/>
		<rect x="108.968" fill="#E63E42" width="27.236" height="27.235"/>
		<rect x="136.204" fill="#CF2028" width="27.236" height="27.235"/>
		<rect x="163.44" y="27.235" fill="#E63E42" width="27.235" height="27.236"/>
		<polygon fill="#E63E42" points="54.496,27.235 54.496,54.472 54.496,81.707 81.732,81.707 81.732,54.472 81.732,27.235 		"/>
		<rect x="108.968" y="54.472" fill="#CF2028" width="27.236" height="27.236"/>
		<rect x="54.496" y="81.708" fill="#CF2028" width="27.236" height="54.472"/>
		<rect x="27.26" y="108.944" fill="#E63E42" width="27.236" height="27.235"/>
		<rect x="27.26" fill="#E63E42" width="27.236" height="27.235"/>
		<rect x="217.912" y="108.944" fill="#E63E42" width="27.236" height="27.235"/>
		<rect x="217.912" y="81.708" fill="#F15B56" width="27.236" height="27.236"/>
		<rect x="217.912" y="27.235" fill="#CF2028" width="27.236" height="27.236"/>
		<rect x="217.912" fill="#E63E42" width="27.236" height="27.235"/>
		<rect x="163.44" y="108.944" fill="#E63E42" width="27.235" height="27.235"/>
		<rect x="190.676" y="108.944" fill="#F15B56" width="27.236" height="27.235"/>
		<polygon fill="#CF2028" points="190.676,81.707 190.676,54.472 163.44,54.472 163.44,108.942 217.912,108.942 217.912,81.707 		
			"/>
		<rect x="190.676" y="54.472" fill="#E63E42" width="54.473" height="27.236"/>
		<polygon fill="#F15B56" points="163.44,0 163.44,27.235 190.676,27.235 190.676,54.472 217.912,54.472 217.912,0 		"/>
		<rect x="0.024" y="108.944" fill="#CF2028" width="27.236" height="27.235"/>
		<rect x="0.024" y="81.708" fill="#E63E42" width="27.236" height="27.236"/>
		<polygon fill="#F15B56" points="0.024,54.472 0.024,81.707 27.26,81.707 27.26,108.942 54.496,108.942 54.496,54.472 		"/>
		<rect x="0.024" y="27.235" fill="#CF2028" width="54.472" height="27.236"/>
		<rect x="0.024" fill="#F15B56" width="27.236" height="27.235"/>
		<polygon fill="#CF2028" points="109.002,108.942 109.002,108.894 81.782,136.112 163.44,136.179 163.44,108.942 		"/>
		<polygon fill="#FFFFFF" points="108.951,108.944 108.968,108.944 108.968,108.926 		"/>
		<polygon fill="#FFFFFF" points="108.968,108.894 108.968,108.927 109.002,108.894 		"/>
		<g>
			<path fill="#424343" d="M10.925,149.798c1.511,0,2.798,0.219,3.858,0.66c1.061,0.439,1.924,1.021,2.59,1.744
				c0.666,0.722,1.151,1.545,1.456,2.47c0.305,0.926,0.458,1.886,0.458,2.878c0,0.972-0.153,1.926-0.458,2.861
				c-0.305,0.938-0.79,1.766-1.456,2.488c-0.666,0.723-1.529,1.303-2.59,1.743c-1.061,0.44-2.347,0.659-3.858,0.659H5.34v8.667
				H0.024v-24.171H10.925z M9.469,161.173c0.609,0,1.196-0.046,1.761-0.136c0.563-0.089,1.06-0.265,1.489-0.524
				c0.428-0.261,0.772-0.628,1.032-1.102c0.259-0.473,0.389-1.094,0.389-1.861s-0.13-1.388-0.389-1.862
				c-0.26-0.474-0.604-0.84-1.032-1.1c-0.43-0.259-0.926-0.435-1.489-0.524c-0.564-0.09-1.151-0.135-1.761-0.135H5.34v7.244H9.469z"
				/>
			<rect x="29.215" y="149.798" fill="#424343" width="5.314" height="24.17"/>
			<polygon fill="#424343" points="45.101,149.798 51.261,149.798 56.001,157.517 60.91,149.798 66.732,149.798 58.979,161.341 
				67.408,173.968 61.079,173.968 55.798,165.606 50.415,173.968 44.457,173.968 52.886,161.308 			"/>
			<path fill="#424343" d="M88.334,149.798l9.039,24.17h-5.517l-1.828-5.383h-9.039l-1.896,5.383h-5.349l9.14-24.17H88.334z
				 M88.639,164.626l-3.046-8.871h-0.068l-3.148,8.871H88.639z"/>
			<path fill="#424343" d="M117.744,149.798c1.149,0,2.199,0.102,3.147,0.306c0.949,0.203,1.761,0.536,2.438,0.999
				c0.677,0.463,1.203,1.077,1.574,1.844c0.373,0.768,0.559,1.715,0.559,2.844c0,1.219-0.275,2.234-0.828,3.047
				c-0.555,0.812-1.372,1.479-2.455,1.998c1.488,0.428,2.601,1.179,3.333,2.25c0.734,1.072,1.1,2.363,1.1,3.876
				c0,1.218-0.236,2.274-0.71,3.165c-0.474,0.892-1.111,1.62-1.913,2.183c-0.801,0.565-1.714,0.983-2.741,1.254
				c-1.027,0.27-2.081,0.405-3.165,0.405h-11.713v-24.17H117.744z M117.067,159.581c0.948,0,1.725-0.225,2.335-0.676
				c0.609-0.452,0.914-1.186,0.914-2.201c0-0.564-0.103-1.027-0.305-1.389c-0.204-0.36-0.474-0.643-0.812-0.846
				c-0.339-0.203-0.728-0.345-1.167-0.424c-0.44-0.078-0.898-0.118-1.372-0.118h-4.976v5.653H117.067z M117.371,169.839
				c0.519,0,1.016-0.053,1.489-0.151c0.475-0.104,0.891-0.272,1.253-0.509c0.361-0.238,0.648-0.559,0.864-0.965
				c0.214-0.406,0.321-0.926,0.321-1.559c0-1.24-0.351-2.127-1.049-2.657c-0.7-0.528-1.625-0.796-2.775-0.796h-5.789v6.637H117.371z
				"/>
			<rect x="137.81" y="149.798" fill="#424343" width="5.314" height="24.17"/>
			<polygon fill="#424343" points="160.377,149.798 160.377,169.5 172.158,169.5 172.158,173.968 155.062,173.968 155.062,149.798 
							"/>
			<rect x="181.154" y="149.798" fill="#424343" width="5.314" height="24.17"/>
			<polygon fill="#424343" points="196.022,154.267 196.022,149.798 215.824,149.798 215.824,154.267 208.582,154.267 
				208.582,173.968 203.267,173.968 203.267,154.267 			"/>
			<polygon fill="#424343" points="222.16,149.798 228.117,149.798 233.771,159.344 239.391,149.798 245.313,149.798 
				236.344,164.693 236.344,173.968 231.028,173.968 231.028,164.558 			"/>
		</g>
	</g>
</g>
</svg>
