<?xml version="1.0" encoding="utf-8"?>
<!-- Generator: Adobe Illustrator 16.0.0, SVG Export Plug-In . SVG Version: 6.00 Build 0)  -->
<!DOCTYPE svg PUBLIC "-//W3C//DTD SVG 1.1//EN" "http://www.w3.org/Graphics/SVG/1.1/DTD/svg11.dtd">
<svg version="1.1" id="Layer_1" xmlns="http://www.w3.org/2000/svg" xmlns:xlink="http://www.w3.org/1999/xlink" x="0px" y="0px"
	 width="40.204px" height="40.204px" viewBox="0 0 40.204 40.204" enable-background="new 0 0 40.204 40.204" xml:space="preserve">
<g>
	<g>
		<g>
			<polygon fill="#F15B56" points="0,0 0,40.204 8.037,40.204 8.037,8.04 32.158,8.04 32.158,32.163 16.078,32.163 8.037,40.204 
				40.203,40.204 40.203,0 			"/>
		</g>
		<g>
			<polygon fill="#F15B56" points="0,0 0,8.04 8.041,8.04 16.082,8.04 16.082,0 			"/>
			<rect x="16.082" fill="#E63E42" width="8.041" height="8.041"/>
			<rect x="24.122" fill="#CF2028" width="8.041" height="8.041"/>
			<rect x="32.163" y="8.041" fill="#E63E42" width="8.041" height="8.04"/>
			<polygon fill="#E63E42" points="0,8.04 0,16.081 0,24.122 8.041,24.122 8.041,16.081 8.041,8.04 			"/>
			<rect x="16.082" y="16.081" fill="#CF2028" width="8.041" height="8.041"/>
			<rect y="24.122" fill="#CF2028" width="8.041" height="16.082"/>
			<rect x="32.163" y="16.081" fill="#CF2028" width="8.04" height="16.082"/>
			<rect x="32.163" y="32.163" fill="#E63E42" width="8.041" height="8.041"/>
			<rect x="32.164" fill="#F15B56" width="8.04" height="8.041"/>
			<polygon fill="#CF2028" points="16.091,32.163 16.091,32.147 8.056,40.184 32.163,40.204 32.163,32.163 			"/>
			<polygon fill="#FFFFFF" points="16.077,32.163 16.082,32.163 16.082,32.157 			"/>
			<polygon fill="#FFFFFF" points="16.082,32.147 16.082,32.158 16.091,32.147 			"/>
		</g>
	</g>
</g>
</svg>
